<svg width="1920" height="343" viewBox="0 0 1920 343" fill="none" xmlns="http://www.w3.org/2000/svg">
<rect opacity="0.1" width="1920" height="343" fill="#6CD78F"/>
<g opacity="0.2">
<mask id="mask0_103_327" style="mask-type:alpha" maskUnits="userSpaceOnUse" x="0" y="0" width="1920" height="343">
<rect width="1920" height="343" fill="#C4C4C4"/>
</mask>
<g mask="url(#mask0_103_327)">
<path d="M1943.73 -25.6372C1943.73 -25.6372 1857.17 13.9569 1831.39 24.1667C1805.61 34.3765 1746.65 33.1122 1746.65 33.1122H1719.03L1689.54 19.0522L1632.46 45.8697L1556.93 84.1803L1479.56 43.322L1466.69 27.9977L1437.21 31.8288L1286.16 91.8425L1262.23 104.619H1219.85L1170.12 96.9569L1022.77 169.747L839.511 247.652V372.794H1956.63L1943.73 -25.6372Z" fill="url(#paint0_linear_103_327)"/>
<g style="mix-blend-mode:darken">
<path d="M1438.76 102.239L1402.53 122.301L1373.01 159.559V190.245L1335.44 235.987L1310.83 266.882L1402.53 202.55L1459.96 140.777L1556.52 84.3103L1479.8 43.4585C1484.74 69.2527 1438.76 102.239 1438.76 102.239Z" fill="#2C5E5F"/>
</g>
<g style="mix-blend-mode:darken">
<path d="M1837.26 22.0237C1835.04 22.8948 1832.74 23.6546 1830.37 24.2974C1830.37 24.2974 1796.43 54.5053 1771.93 67.8801C1747.43 81.2549 1673.93 118.513 1673.93 118.513C1673.93 118.513 1629.02 171.057 1599.08 183.477C1569.13 195.896 1476.58 244.943 1476.58 244.943L1345.93 369.768H1960.65L1944.6 -30.1758C1944.6 -30.1758 1862.65 11.8398 1837.26 22.0237Z" fill="#33696C"/>
</g>
<path d="M374.612 19.3852H405.041L479.857 9.19092L512.815 19.3852L636.774 113.754L699.533 140.531L881.326 250.182L1099.84 306.049L1290.02 357.288V470.764H-15.8828V178.783C-15.8828 178.783 76.6774 126.492 107.106 121.405C137.535 116.317 228.821 95.8902 228.821 95.8902L345.458 46.1619L374.612 19.3852Z" fill="url(#paint1_linear_103_327)"/>
<g style="mix-blend-mode:overlay" opacity="0.37">
<path d="M27.8584 164.744L197.118 134.142L294.737 89.5207L369.553 39.7925L405.041 19.3848H374.612L345.458 46.1615L228.821 95.8897C228.821 95.8897 137.535 116.297 107.106 121.404C76.6774 126.511 -15.8828 178.783 -15.8828 178.783V203.991L27.8584 164.744Z" fill="#FFFEF7"/>
</g>
<g style="mix-blend-mode:overlay" opacity="0.32">
<path d="M1099.84 306.049L881.328 250.181L699.535 140.53L636.776 113.754L574.283 66.1675L624.072 134.142L759.347 218.298C759.347 218.298 833.802 281.644 836.198 285.048C838.594 288.453 1128.9 313.91 1128.92 313.91L1099.84 306.049Z" fill="#201352"/>
</g>
<path d="M894.664 345.37L683.47 321.466L521.258 285.133L468.234 235.413L424.875 219.158L362.187 163.07L288.814 133.735H234.13C234.13 133.735 138.728 174.85 112.736 178.369C86.7444 181.887 41.4643 201.947 41.4643 201.947L-58 235.413L-17.3219 294.369V568.479H857.328L894.664 345.37Z" fill="url(#paint2_linear_103_327)"/>
<g style="mix-blend-mode:overlay" opacity="0.08">
<path d="M428.509 325.729L388.571 341.986L236.428 435.705V568.957H859.189L894.676 345.812L691.595 322.864L521.62 285.038L466.967 234.604L457.986 266.763L428.509 325.729Z" fill="#201352"/>
</g>
<g style="mix-blend-mode:overlay" opacity="0.08">
<path d="M630.46 332.424L584.456 351.55C584.456 351.55 568.291 386.933 551.174 401.278C534.058 415.623 468.446 443.356 468.446 443.356L418.049 497.866L334.37 612.336L300.651 706.667H437.143L536.036 499.778L612.108 436.662C612.108 436.662 646.34 393.628 664.864 386.933C683.387 380.239 701.739 374.501 715.394 366.851C729.049 359.2 736.618 345.812 759.953 348.681C759.953 348.681 770.109 338.162 796.182 341.03C822.256 343.899 829.464 334.336 829.464 334.336L802.591 316.492L757.279 300.673L740.232 305.212L718.671 310.76L700.621 313.786L661.01 320.343L630.46 332.424Z" fill="#201352"/>
</g>
<g style="mix-blend-mode:overlay" opacity="0.08">
<path d="M990.393 306.048L954.354 329.554L931.533 369.72L901.104 420.404L829.502 454.506L752.422 530.38L729.848 588.715L801.412 505.497L894.676 456.744L975.274 413.71L1027.57 364.938L1094.76 320.317H1059.26L990.393 306.048Z" fill="#201352"/>
</g>
<g style="mix-blend-mode:overlay" opacity="0.08">
<path d="M1311.83 316.308L1280.62 329.728L1257.8 369.893L1227.37 420.577L1155.77 454.679L1078.69 530.553L1056.12 588.888L1127.68 505.67L1220.94 456.917L1301.54 413.883L1353.84 365.111L1420.64 304.204L1376.51 320.49H1330.88L1311.83 316.308Z" fill="#201352"/>
</g>
</g>
</g>
<defs>
<linearGradient id="paint0_linear_103_327" x1="3468.36" y1="-89.1845" x2="1271.97" y2="291.784" gradientUnits="userSpaceOnUse">
<stop offset="0.042546" stop-color="#E1F6C1"/>
<stop offset="0.27" stop-color="#C5E9B5"/>
<stop offset="0.864959" stop-color="#3B777E"/>
<stop offset="1" stop-color="#3B777E"/>
</linearGradient>
<linearGradient id="paint1_linear_103_327" x1="637.059" y1="604.017" x2="637.059" y2="127.774" gradientUnits="userSpaceOnUse">
<stop stop-color="#E1F6C1"/>
<stop offset="0.22" stop-color="#C5E2B4"/>
<stop offset="0.7" stop-color="#77C49B"/>
<stop offset="1" stop-color="#599575"/>
</linearGradient>
<linearGradient id="paint2_linear_103_327" x1="418.332" y1="758.428" x2="418.332" y2="321.352" gradientUnits="userSpaceOnUse">
<stop stop-color="#ABCDAC"/>
<stop offset="0.66" stop-color="#62958E"/>
<stop offset="1" stop-color="#3A767D"/>
</linearGradient>
</defs>
</svg>
